<svg xmlns="http://www.w3.org/2000/svg" viewBox="0 0 200 200">
  <!-- Dream Weaver - Celestial being that creates dreams -->
  <defs>
    <linearGradient id="dreamBody" x1="0%" y1="0%" x2="100%" y2="100%">
      <stop offset="0%" stop-color="#FF69B4" stop-opacity="0.7"/>
      <stop offset="50%" stop-color="#DA70D6" stop-opacity="0.6"/>
      <stop offset="100%" stop-color="#9370DB" stop-opacity="0.5"/>
    </linearGradient>
    <filter id="dreamGlow" x="-20%" y="-20%" width="140%" height="140%">
      <feGaussianBlur in="SourceGraphic" stdDeviation="3" result="blur"/>
      <feColorMatrix in="blur" mode="matrix" values="1 0 0 0 0  0 1 0 0 0  0 0 1 0 0  0 0 0 18 -7" result="dreamGlow"/>
    </filter>
  </defs>
  
  <!-- Flowing robe/body -->
  <path d="M80 50 Q100 30 120 50 Q140 70 130 100 Q120 130 100 140 Q80 130 70 100 Q60 70 80 50Z" 
        fill="url(#dreamBody)" opacity="0.9"/>
  
  <!-- Glowing aura -->
  <circle cx="100" cy="90" r="40" fill="none" stroke="#E6E6FA" stroke-width="2" opacity="0.5" filter="url(#dreamGlow)"/>
  
  <!-- Facial features (ethereal) -->
  <circle cx="90" cy="80" r="2" fill="#FFFFFF" opacity="0.9"/>
  <circle cx="110" cy="80" r="2" fill="#FFFFFF" opacity="0.9"/>
  <path d="M95 90 Q100 93 105 90" stroke="#FFFFFF" stroke-width="1" fill="none" opacity="0.8"/>
  
  <!-- Dream threads/weaving -->
  <path d="M60 70 Q80 60 100 70 Q120 80 140 70" stroke="#E6E6FA" stroke-width="1" fill="none" opacity="0.7"/>
  <path d="M60 80 Q80 90 100 80 Q120 70 140 80" stroke="#E6E6FA" stroke-width="1" fill="none" opacity="0.7"/>
  <path d="M60 90 Q80 80 100 90 Q120 100 140 90" stroke="#E6E6FA" stroke-width="1" fill="none" opacity="0.7"/>
  
  <!-- Dream stars/particles -->
  <circle cx="70" cy="60" r="2" fill="#FFFFFF" opacity="0.8"/>
  <circle cx="130" cy="60" r="2" fill="#FFFFFF" opacity="0.8"/>
  <circle cx="80" cy="110" r="1" fill="#FFFFFF" opacity="0.8"/>
  <circle cx="120" cy="110" r="1" fill="#FFFFFF" opacity="0.8"/>
  <circle cx="100" cy="50" r="1.5" fill="#FFFFFF" opacity="0.8"/>
  
  <!-- Flowing hair/essence -->
  <path d="M85 55 Q75 40 80 30" stroke="#DA70D6" stroke-width="1.5" fill="none" opacity="0.7"/>
  <path d="M100 45 Q100 30 100 20" stroke="#DA70D6" stroke-width="1.5" fill="none" opacity="0.7"/>
  <path d="M115 55 Q125 40 120 30" stroke="#DA70D6" stroke-width="1.5" fill="none" opacity="0.7"/>
</svg>