<svg xmlns="http://www.w3.org/2000/svg" viewBox="0 0 200 200">
  <!-- Ocean Spirit - Flowing water-like celestial being -->
  <defs>
    <linearGradient id="oceanBody" x1="0%" y1="0%" x2="100%" y2="100%">
      <stop offset="0%" stop-color="#00BFFF" stop-opacity="0.8"/>
      <stop offset="50%" stop-color="#1E90FF" stop-opacity="0.6"/>
      <stop offset="100%" stop-color="#0000CD" stop-opacity="0.4"/>
    </linearGradient>
    <filter id="waterRipple" x="-20%" y="-20%" width="140%" height="140%">
      <feTurbulence type="fractalNoise" baseFrequency="0.01" numOctaves="2" result="noise"/>
      <feDisplacementMap in="SourceGraphic" in2="noise" scale="5" xChannelSelector="R" yChannelSelector="G"/>
    </filter>
  </defs>
  
  <!-- Flowing body -->
  <path d="M60 70 C80 50 120 50 140 70 C160 90 160 110 140 130 C120 150 80 150 60 130 C40 110 40 90 60 70Z" 
        fill="url(#oceanBody)" filter="url(#waterRipple)"/>
  
  <!-- Water droplets/details -->
  <circle cx="70" cy="80" r="5" fill="#FFFFFF" opacity="0.6"/>
  <circle cx="130" cy="80" r="5" fill="#FFFFFF" opacity="0.6"/>
  <circle cx="100" cy="140" r="4" fill="#FFFFFF" opacity="0.5"/>
  
  <!-- Facial features (subtle) -->
  <circle cx="85" cy="90" r="3" fill="#FFFFFF" opacity="0.8"/>
  <circle cx="115" cy="90" r="3" fill="#FFFFFF" opacity="0.8"/>
  <path d="M90 105 Q100 110 110 105" stroke="#FFFFFF" stroke-width="1.5" fill="none" opacity="0.8"/>
  
  <!-- Flowing tendrils -->
  <path d="M70 130 Q60 150 50 170" stroke="#00BFFF" stroke-width="3" fill="none" opacity="0.7"/>
  <path d="M90 140 Q90 160 85 180" stroke="#00BFFF" stroke-width="3" fill="none" opacity="0.7"/>
  <path d="M110 140 Q110 160 115 180" stroke="#00BFFF" stroke-width="3" fill="none" opacity="0.7"/>
  <path d="M130 130 Q140 150 150 170" stroke="#00BFFF" stroke-width="3" fill="none" opacity="0.7"/>
  
  <!-- Bubbles -->
  <circle cx="65" cy="110" r="2" fill="#FFFFFF" opacity="0.6"/>
  <circle cx="75" cy="120" r="3" fill="#FFFFFF" opacity="0.5"/>
  <circle cx="125" cy="110" r="2" fill="#FFFFFF" opacity="0.6"/>
  <circle cx="135" cy="120" r="3" fill="#FFFFFF" opacity="0.5"/>
</svg>