<svg xmlns="http://www.w3.org/2000/svg" viewBox="0 0 200 200">
  <!-- Thunder God - Celestial being with lightning powers -->
  <defs>
    <radialGradient id="bodyGlow" cx="50%" cy="50%" r="50%" fx="50%" fy="50%">
      <stop offset="0%" stop-color="#f5f0ff" stop-opacity="0.9"/>
      <stop offset="70%" stop-color="#9370DB" stop-opacity="0.7"/>
      <stop offset="100%" stop-color="#4B0082" stop-opacity="0.5"/>
    </radialGradient>
    <filter id="lightning" x="-20%" y="-20%" width="140%" height="140%">
      <feGaussianBlur in="SourceGraphic" stdDeviation="2" result="blur"/>
      <feColorMatrix in="blur" mode="matrix" values="1 0 0 0 0  0 1 0 0 0  0 0 1 0 0  0 0 0 18 -7" result="lightning"/>
    </filter>
  </defs>
  
  <!-- Glowing body -->
  <circle cx="100" cy="90" r="45" fill="url(#bodyGlow)"/>
  
  <!-- Crown/headdress -->
  <path d="M70 60 L100 30 L130 60" stroke="#FFD700" stroke-width="3" fill="none"/>
  <path d="M80 55 L100 40 L120 55" stroke="#FFD700" stroke-width="2" fill="none"/>
  
  <!-- Lightning bolts -->
  <path d="M60 100 L75 120 L65 125 L85 150" stroke="#FFFF00" stroke-width="3" filter="url(#lightning)" fill="none"/>
  <path d="M140 100 L125 120 L135 125 L115 150" stroke="#FFFF00" stroke-width="3" filter="url(#lightning)" fill="none"/>
  
  <!-- Facial features (minimalist) -->
  <circle cx="85" cy="80" r="3" fill="#FFFFFF"/>
  <circle cx="115" cy="80" r="3" fill="#FFFFFF"/>
  <path d="M90 95 L110 95" stroke="#FFFFFF" stroke-width="2" fill="none"/>
  
  <!-- Flowing robes -->
  <path d="M70 110 Q100 150 130 110" stroke="#9370DB" stroke-width="2" fill="url(#bodyGlow)" opacity="0.7"/>
  <path d="M75 120 Q100 170 125 120" stroke="#9370DB" stroke-width="2" fill="url(#bodyGlow)" opacity="0.5"/>
</svg>